<?xml version="1.0"?>
<!DOCTYPE svg PUBLIC "-//W3C//DTD SVG 1.1//EN" "http://www.w3.org/Graphics/SVG/1.1/DTD/svg11.dtd">
<!--Phoronix Test Suite v6.2.1 [ http://www.phoronix-test-suite.com/ ]-->
<svg xmlns="http://www.w3.org/2000/svg" xmlns:xlink="http://www.w3.org/1999/xlink" version="1.1" font-family="sans-serif, droid-sans, helvetica, verdana, tahoma" viewbox="0 0 600 414" width="600" height="414" preserveAspectRatio="xMinYMin meet"><rect x="0" y="0" width="600" height="414" fill="#FEFEFE" stroke="#757575" stroke-width="2"/><g stroke="#757575" stroke-width="1"><line x1="113.5" y1="64" x2="113.5" y2="341"/><line x1="113" y1="340.5" x2="586" y2="340.5"/></g><a xlink:href="http://www.phoronix-test-suite.com/" xlink:show="new"><text x="585" y="59" font-size="7" fill="#065695" text-anchor="end" xlink:show="new">PHORONIX-TEST-SUITE.COM</text></a><polygon points="122.5,56 113.5,60.5 113.5,51.5" fill="#065695" stroke="#949494" stroke-width="1"/><text x="125" y="59" font-size="7" fill="#065695" text-anchor="start">Files/s, More Is Better</text><rect x="0" y="0" width="600" height="48" fill="#231f20"/><a xlink:href="http://openbenchmarking.org/test/pts/fs-mark-1.0.1" xlink:show="new"><text x="6" y="19" font-size="17" fill="#FEFEFE" text-anchor="start" xlink:show="new">FS-Mark v3.3</text></a><text x="6" y="36" font-size="11" fill="#FEFEFE" text-anchor="start">Test: 1000 Files, 1MB Size</text><path d="m74 22v9m-5-16v16m-5-28v28m-23-2h12.5c2.485281 0 4.5-2.014719 4.5-4.5s-2.014719-4.5-4.5-4.5h-8c-2.485281 0-4.5-2.014719-4.5-4.5s2.014719-4.5 4.5-4.5h12.5m-21 5h-11m11 13h-2c-4.970563 0-9-4.029437-9-9v-20m-24 40v-20c0-4.970563 4.0294373-9 9-9 4.970563 0 9 4.029437 9 9s-4.029437 9-9 9h-9" stroke="#ffffff" stroke-width="4" fill="none" transform="translate(508,4)"/><line x1="113.5" y1="110" x2="113.5" y2="340" stroke="#757575" stroke-width="11" stroke-dasharray="1,45"/><g font-size="10" fill="#231f20"><text x="108" y="85" text-anchor="end">TOSHIBA MQ01ABD1</text><text x="108" y="131" text-anchor="end">vfat-fs-1</text><text x="108" y="177" text-anchor="end">jfs-fs</text><text x="108" y="223" text-anchor="end">test2</text><text x="108" y="269" text-anchor="end">free-fs-mark</text><text x="108" y="315" text-anchor="end">ext2-fs</text></g><g font-size="10" fill="#065695" text-anchor="middle"><text x="194.5" y="355">1200</text><text x="273.5" y="355">2400</text><text x="352.5" y="355">3600</text><text x="431.5" y="355">4800</text><text x="510.5" y="355">6000</text></g><g stroke="#BABABA" stroke-width="1"><line x1="194.5" y1="64" x2="194.5" y2="335" stroke-dasharray="5,5"/><line x1="194.5" y1="336" x2="194.5" y2="345"/><line x1="273.5" y1="64" x2="273.5" y2="335" stroke-dasharray="5,5"/><line x1="273.5" y1="336" x2="273.5" y2="345"/><line x1="352.5" y1="64" x2="352.5" y2="335" stroke-dasharray="5,5"/><line x1="352.5" y1="336" x2="352.5" y2="345"/><line x1="431.5" y1="64" x2="431.5" y2="335" stroke-dasharray="5,5"/><line x1="431.5" y1="336" x2="431.5" y2="345"/><line x1="510.5" y1="64" x2="510.5" y2="335" stroke-dasharray="5,5"/><line x1="510.5" y1="336" x2="510.5" y2="345"/></g><g stroke="#949494" stroke-width="1"><rect x="113.5" y="70.5" height="34" width="111" fill="#065695" xlink:title="TOSHIBA MQ01ABD1: 1687.78"/><rect x="113.5" y="116.5" height="34" width="58" fill="#065695" xlink:title="vfat-fs-1: 890.18"/><rect x="113.5" y="162.5" height="34" width="99" fill="#065695" xlink:title="jfs-fs: 1507.88"/><rect x="113.5" y="208.5" height="34" width="67" fill="#065695" xlink:title="test2: 1014.60"/><rect x="113.5" y="254.5" height="34" width="352" fill="#065695" xlink:title="free-fs-mark: 5369.40"/><rect x="113.5" y="300.5" height="34" width="116" fill="#065695" xlink:title="ext2-fs: 1770.95"/></g><g font-size="8" fill="#065695" text-anchor="end"><text y="101" x="108">SE +/- 55.35</text><text y="147" x="108">SE +/- 12.53</text><text y="193" x="108">SE +/- 21.94</text><text y="239" x="108">SE +/- 19.74</text><text y="285" x="108">SE +/- 29.37</text><text y="331" x="108">SE +/- 24.30</text></g><g font-size="10" fill="#FFFFFF"><text x="219" y="93" text-anchor="end">1687.78</text><text x="166" y="139" text-anchor="end">890.18</text><text x="207" y="185" text-anchor="end">1507.88</text><text x="175" y="231" text-anchor="end">1014.60</text><text x="460" y="277" text-anchor="end">5369.40</text><text x="224" y="323" text-anchor="end">1770.95</text></g><rect x="0" y="362" width="600" height="52" fill="#231f20"/><a xlink:href="http://www.phoronix-test-suite.com/" xlink:show="new"><text x="585" y="374" font-size="9" fill="#FEFEFE" text-anchor="end" xlink:show="new">Phoronix Test Suite 6.2.1</text></a><text x="5" y="388" font-size="8" fill="#FEFEFE" text-anchor="start" xlink:title="-static" width="595">1. (CC) gcc options: -static</text></svg>
