<?xml version="1.0"?>
<!DOCTYPE svg PUBLIC "-//W3C//DTD SVG 1.1//EN" "http://www.w3.org/Graphics/SVG/1.1/DTD/svg11.dtd">
<!--Phoronix Test Suite v6.2.1 [ http://www.phoronix-test-suite.com/ ]-->
<svg xmlns="http://www.w3.org/2000/svg" xmlns:xlink="http://www.w3.org/1999/xlink" version="1.1" font-family="sans-serif, droid-sans, helvetica, verdana, tahoma" viewbox="0 0 600 368" width="600" height="368" preserveAspectRatio="xMinYMin meet"><rect x="0" y="0" width="600" height="368" fill="#FEFEFE" stroke="#757575" stroke-width="2"/><g stroke="#757575" stroke-width="1"><line x1="113.5" y1="64" x2="113.5" y2="295"/><line x1="113" y1="294.5" x2="586" y2="294.5"/></g><a xlink:href="http://www.phoronix-test-suite.com/" xlink:show="new"><text x="585" y="59" font-size="7" fill="#065695" text-anchor="end" xlink:show="new">PHORONIX-TEST-SUITE.COM</text></a><polygon points="122.5,56 113.5,60.5 113.5,51.5" fill="#065695" stroke="#949494" stroke-width="1"/><text x="125" y="59" font-size="7" fill="#065695" text-anchor="start">Files/s, More Is Better</text><rect x="0" y="0" width="600" height="48" fill="#231f20"/><a xlink:href="http://openbenchmarking.org/test/pts/fs-mark-1.0.1" xlink:show="new"><text x="6" y="19" font-size="17" fill="#FEFEFE" text-anchor="start" xlink:show="new">FS-Mark v3.3</text></a><text x="6" y="36" font-size="11" fill="#FEFEFE" text-anchor="start">Test: 1000 Files, 1MB Size, No Sync/FSync</text><path d="m74 22v9m-5-16v16m-5-28v28m-23-2h12.5c2.485281 0 4.5-2.014719 4.5-4.5s-2.014719-4.5-4.5-4.5h-8c-2.485281 0-4.5-2.014719-4.5-4.5s2.014719-4.5 4.5-4.5h12.5m-21 5h-11m11 13h-2c-4.970563 0-9-4.029437-9-9v-20m-24 40v-20c0-4.970563 4.0294373-9 9-9 4.970563 0 9 4.029437 9 9s-4.029437 9-9 9h-9" stroke="#ffffff" stroke-width="4" fill="none" transform="translate(508,4)"/><line x1="113.5" y1="110" x2="113.5" y2="294" stroke="#757575" stroke-width="11" stroke-dasharray="1,45"/><g font-size="10" fill="#231f20"><text x="108" y="85" text-anchor="end">TOSHIBA MQ01ABD1</text><text x="108" y="131" text-anchor="end">jfs-fs</text><text x="108" y="177" text-anchor="end">test2</text><text x="108" y="223" text-anchor="end">free-fs-mark</text><text x="108" y="269" text-anchor="end">ext2-fs</text></g><g font-size="10" fill="#065695" text-anchor="middle"><text x="194.5" y="309">1100</text><text x="273.5" y="309">2200</text><text x="352.5" y="309">3300</text><text x="431.5" y="309">4400</text><text x="510.5" y="309">5500</text></g><g stroke="#BABABA" stroke-width="1"><line x1="194.5" y1="64" x2="194.5" y2="289" stroke-dasharray="5,5"/><line x1="194.5" y1="290" x2="194.5" y2="299"/><line x1="273.5" y1="64" x2="273.5" y2="289" stroke-dasharray="5,5"/><line x1="273.5" y1="290" x2="273.5" y2="299"/><line x1="352.5" y1="64" x2="352.5" y2="289" stroke-dasharray="5,5"/><line x1="352.5" y1="290" x2="352.5" y2="299"/><line x1="431.5" y1="64" x2="431.5" y2="289" stroke-dasharray="5,5"/><line x1="431.5" y1="290" x2="431.5" y2="299"/><line x1="510.5" y1="64" x2="510.5" y2="289" stroke-dasharray="5,5"/><line x1="510.5" y1="290" x2="510.5" y2="299"/></g><g stroke="#949494" stroke-width="1"><rect x="113.5" y="70.5" height="34" width="181" fill="#065695" xlink:title="TOSHIBA MQ01ABD1: 2534.93"/><rect x="113.5" y="116.5" height="34" width="148" fill="#065695" xlink:title="jfs-fs: 2068.13"/><rect x="113.5" y="162.5" height="34" width="143" fill="#065695" xlink:title="test2: 2004.73"/><rect x="113.5" y="208.5" height="34" width="381" fill="#065695" xlink:title="free-fs-mark: 5330.93"/><rect x="113.5" y="254.5" height="34" width="210" fill="#065695" xlink:title="ext2-fs: 2933.87"/></g><g font-size="8" fill="#065695" text-anchor="end"><text y="101" x="108">SE +/- 65.10</text><text y="147" x="108">SE +/- 17.88</text><text y="193" x="108">SE +/- 16.59</text><text y="239" x="108">SE +/- 18.76</text><text y="285" x="108">SE +/- 10.87</text></g><g font-size="10" fill="#FFFFFF"><text x="289" y="93" text-anchor="end">2534.93</text><text x="256" y="139" text-anchor="end">2068.13</text><text x="251" y="185" text-anchor="end">2004.73</text><text x="489" y="231" text-anchor="end">5330.93</text><text x="318" y="277" text-anchor="end">2933.87</text></g><line x1="289.5" y1="70" x2="289.5" y2="78" stroke="#757575" stroke-width="1"/><line x1="299.5" y1="70" x2="299.5" y2="78" stroke="#757575" stroke-width="1"/><line x1="289.5" y1="70.5" x2="299.5" y2="70.5" stroke="#757575" stroke-width="1"/><rect x="0" y="316" width="600" height="52" fill="#231f20"/><a xlink:href="http://www.phoronix-test-suite.com/" xlink:show="new"><text x="585" y="328" font-size="9" fill="#FEFEFE" text-anchor="end" xlink:show="new">Phoronix Test Suite 6.2.1</text></a><text x="5" y="342" font-size="8" fill="#FEFEFE" text-anchor="start" xlink:title="-static" width="595">1. (CC) gcc options: -static</text></svg>
